Coordinates
version=1
nRows=5
nColumns=40
inDegrees=yes

Units are S.I. units (second, meters, Newtons, ...)
Angles are in degrees.

endheader
time	pelvis_tilt	pelvis_list	pelvis_rotation	pelvis_tx	pelvis_ty	pelvis_tz	hip_flexion_r	hip_adduction_r	hip_rotation_r	knee_angle_r	knee_angle_r_beta	ankle_angle_r	subtalar_angle_r	mtp_angle_r	hip_flexion_l	hip_adduction_l	hip_rotation_l	knee_angle_l	knee_angle_l_beta	ankle_angle_l	subtalar_angle_l	mtp_angle_l	lumbar_extension	lumbar_bending	lumbar_rotation	arm_flex_r	arm_add_r	arm_rot_r	elbow_flex_r	pro_sup_r	wrist_flex_r	wrist_dev_r	arm_flex_l	arm_add_l	arm_rot_l	elbow_flex_l	pro_sup_l	wrist_flex_l	wrist_dev_l
     44.89000000	    -11.02053006	    -10.27384788	     -2.79923755	      0.95688214	      0.90961129	      0.50751275	      1.27882681	      9.93428468	    -14.66814838	      4.50827032	      4.50827032	     14.59301022	     15.49996422	     -1.40155916	     41.56881263	    -14.55604759	      3.98143145	     27.96752554	     27.96752554	      7.09808867	    -11.85874973	     15.47379613	    -11.03631438	      8.97086099	      6.25406346	     45.54547723	    -12.62926812	      4.72930551	     79.75264667	     44.77494474	      0.00000000	      0.00000000	    -19.28913619	     -7.30272297	      5.25357890	     27.18151831	     44.54883293	      0.00000000	      0.00000000
     44.90171429	    -10.91622405	    -10.11316885	     -3.03957027	      0.95810751	      0.90834401	      0.50581267	      0.65667066	      9.55496454	    -14.16827717	      4.85566566	      4.85566566	     15.28417786	     15.24723455	     -1.24929115	     40.51110090	    -14.42027477	      3.31118534	     27.00206438	     27.00206438	      6.50650576	    -12.13649401	     15.13803017	    -10.98843413	      8.72371246	      5.63910001	     45.29885123	    -11.73954124	      5.03714692	     81.60542118	     44.70993282	      0.00000000	      0.00000000	    -20.08653686	     -7.10453449	      5.57588738	     27.43111269	     44.49146557	      0.00000000	      0.00000000
     44.91342857	    -10.88488325	    -10.08109477	     -3.30589740	      0.95923596	      0.90709237	      0.50410359	      0.16449161	      9.29286054	    -13.76341806	      5.28539924	      5.28539924	     15.85260085	     15.07871710	     -1.26394640	     39.95272591	    -14.42526456	      2.84445003	     27.03371858	     27.03371858	      6.24233093	    -12.52023696	     14.73629652	    -10.80121720	      8.64437978	      5.46871856	     44.84687628	    -11.36275860	      5.18863454	     82.43840052	     44.67979929	      0.00000000	      0.00000000	    -20.50208423	     -6.88276392	      5.76834653	     27.50068147	     44.45884715	      0.00000000	      0.00000000
     44.92514286	    -10.86784854	     -9.97322187	     -3.46118188	      0.96024896	      0.90611319	      0.50214334	     -0.07301008	      8.90054686	    -13.27297952	      6.14341997	      6.14341997	     16.81521801	     14.46181265	     -0.25435651	     39.35825904	    -14.28435539	      2.50217333	     27.06271880	     27.06271880	      4.70275269	    -13.47019373	     10.85461053	    -10.72633888	      8.47583555	      5.84674213	     43.44771024	    -11.87110007	      4.90164668	     85.99130785	     44.61188063	      0.00000000	      0.00000000	    -20.56347834	     -7.17843651	      7.34792180	     28.25749881	     44.27335205	      0.00000000	      0.00000000
     44.93685714	    -10.80171984	     -9.78006818	     -3.56848604	      0.96108312	      0.90550233	      0.49995937	     -0.30110730	      8.38205310	    -13.00130115	      7.02095764	      7.02095764	     17.30971021	     14.05350955	     -0.43057299	     39.08076011	    -14.04966448	      2.25055307	     27.95720833	     27.95720833	      4.85693132	    -13.95650384	     10.37342286	    -10.62830651	      8.23756127	      5.28669128	     42.86598293	    -11.31338681	      5.04196251	     86.56119268	     44.59383881	      0.00000000	      0.00000000	    -20.53497099	     -7.02009374	      7.69512201	     28.05471033	     44.23470281	      0.00000000	      0.00000000
